<svg width="699" height="339" viewBox="0 0 699 339" fill="none" xmlns="http://www.w3.org/2000/svg">
<path d="M166.878 169.492L280.325 104.071C293.135 96.6759 302.482 84.4947 306.311 70.2072C310.139 55.9198 308.135 40.6966 300.74 27.8867C293.344 15.0768 281.163 5.72936 266.875 1.90078C252.588 -1.9278 237.365 0.0760381 224.555 7.47155L28.7256 120.542L166.878 169.492Z" fill="#EA4335"/>
<path d="M251.543 339C263.799 338.973 275.706 334.912 285.424 327.443C295.142 319.974 302.131 309.513 305.31 297.676C308.49 285.839 307.684 273.285 303.016 261.952C298.348 250.619 290.079 241.138 279.486 234.973L83.6562 121.903C77.3133 118.241 70.3114 115.864 63.05 114.908C55.7886 113.952 48.4101 114.436 41.3357 116.332C34.2613 118.228 27.6294 121.498 21.819 125.957C16.0085 130.415 11.1333 135.975 7.47141 142.318C3.80952 148.661 1.43284 155.663 0.476997 162.924C-0.478844 170.185 0.00491954 177.564 1.90064 184.638C3.79636 191.713 7.06691 198.344 11.5256 204.155C15.9843 209.965 21.5437 214.841 27.8866 218.503L223.716 331.573C232.18 336.446 241.776 339.007 251.543 339Z" fill="#4285F4"/>
<path d="M447.085 337.698C456.857 337.688 466.454 335.107 474.912 330.214L670.741 217.143L534.236 167.153L419.142 233.614C408.549 239.778 400.28 249.259 395.612 260.592C390.944 271.925 390.138 284.48 393.317 296.317C396.497 308.154 403.485 318.615 413.204 326.084C422.922 333.552 434.829 337.614 447.085 337.64V337.698Z" fill="#FBBC04"/>
<path d="M642.824 224.741C655.09 224.732 667.011 220.679 676.741 213.21C686.471 205.741 693.467 195.272 696.646 183.425C699.825 171.578 699.009 159.014 694.325 147.677C689.642 136.34 681.351 126.864 670.738 120.715L474.908 7.64432C462.166 0.923174 447.317 -0.606437 433.472 3.37586C419.628 7.35815 407.861 16.5434 400.637 29.0075C393.414 41.4717 391.293 56.2476 394.72 70.2401C398.148 84.2326 406.857 96.356 419.023 104.071L614.881 217.142C623.359 222.102 633.001 224.725 642.824 224.741Z" fill="#0F9D58"/>
</svg>
