<svg xmlns="http://www.w3.org/2000/svg" width="107" height="60" viewBox="0 0 107 60" fill="none">
  <path d="M79.3336 18.1229L88.1962 2.77311C88.3525 2.51036 88.4448 2.19079 88.4448 1.84992C88.4448 0.830867 87.621 0.00710261 86.602 0.00710261C85.9238 0.00710261 85.3308 0.372826 85.0112 0.919636L85.0077 0.926737L76.035 16.4682C69.3348 13.3898 61.4984 11.5931 53.243 11.5931C44.9876 11.5931 37.1511 13.3898 30.103 16.6103L30.4509 16.4682L21.4783 0.923187C21.1552 0.369275 20.5586 0 19.8805 0C18.8614 0 18.0376 0.823766 18.0376 1.84282C18.0376 2.18369 18.13 2.4997 18.2897 2.77311L18.2862 2.76601L27.1488 18.1158C11.9304 26.5203 1.45579 41.8949 0.0106522 59.8154L0 60H106.49C105.034 41.8949 94.5591 26.5203 79.6106 18.2507L79.3407 18.1158L79.3336 18.1229ZM28.7288 44.8349C26.2788 44.8349 24.294 42.85 24.294 40.4C24.294 37.9501 26.2788 35.9652 28.7288 35.9652C31.1788 35.9652 33.1637 37.9501 33.1637 40.4C33.1601 42.8465 31.1788 44.8313 28.7288 44.8349ZM77.7429 44.8349C75.2929 44.8349 73.3081 42.85 73.3081 40.4C73.3081 37.9501 75.2929 35.9652 77.7429 35.9652C80.1929 35.9652 82.1778 37.9501 82.1778 40.4C82.1742 42.8465 80.1929 44.8313 77.7429 44.8349Z" fill="#B5D0FF"/>
</svg>