<svg width="60" height="60" viewBox="0 0 60 60" fill="none" xmlns="http://www.w3.org/2000/svg">
<mask id="mask0_5691_129" style="mask-type:alpha" maskUnits="userSpaceOnUse" x="0" y="0" width="60" height="60">
<rect width="60" height="60" fill="#D9D9D9"/>
</mask>
<g mask="url(#mask0_5691_129)">
<path d="M40.375 32.5012H12.5C11.7917 32.5012 11.1979 32.2617 10.7187 31.7825C10.2396 31.3033 10 30.7096 10 30.0012C10 29.2929 10.2396 28.6992 10.7187 28.22C11.1979 27.7408 11.7917 27.5012 12.5 27.5012H40.375L33.25 20.3762C32.75 19.8762 32.5104 19.2929 32.5312 18.6262C32.5521 17.9596 32.7917 17.3762 33.25 16.8762C33.75 16.3762 34.3437 16.1158 35.0312 16.095C35.7187 16.0742 36.3125 16.3137 36.8125 16.8137L48.25 28.2512C48.5 28.5012 48.6771 28.7721 48.7812 29.0637C48.8854 29.3554 48.9375 29.6679 48.9375 30.0012C48.9375 30.3346 48.8854 30.6471 48.7812 30.9387C48.6771 31.2304 48.5 31.5012 48.25 31.7512L36.8125 43.1887C36.3125 43.6887 35.7187 43.9283 35.0312 43.9075C34.3437 43.8866 33.75 43.6262 33.25 43.1262C32.7917 42.6262 32.5521 42.0429 32.5312 41.3762C32.5104 40.7096 32.75 40.1262 33.25 39.6262L40.375 32.5012Z" fill="#D8E8FF"/>
</g>
</svg>
