<svg xmlns="http://www.w3.org/2000/svg" width="57" height="60" viewBox="0 0 57 60" fill="none">
  <path d="M56.4088 25.9092C56.4088 25.3668 56.1933 24.8465 55.8097 24.4629C55.4261 24.0793 54.9059 23.8638 54.3634 23.8638C53.8209 23.8638 53.3006 24.0793 52.917 24.4629C52.5334 24.8465 52.3179 25.3668 52.3179 25.9092C52.328 31.9728 50.0162 37.8101 45.8573 42.2226C41.6984 46.6351 36.0079 49.2879 29.9544 49.6364L44.818 28.3638L37.9998 6.81843L38.9544 1.63664C38.9953 1.43622 38.9907 1.22915 38.9407 1.03078C38.8908 0.832402 38.7969 0.647804 38.6659 0.490655C38.535 0.333507 38.3703 0.207835 38.1842 0.122949C37.9981 0.0380632 37.7953 -0.00386201 37.5907 0.000279536H19.3181C19.1136 -0.00386201 18.9107 0.0380632 18.7246 0.122949C18.5385 0.207835 18.3739 0.333507 18.2429 0.490655C18.112 0.647804 18.018 0.832402 17.9681 1.03078C17.9182 1.22915 17.9135 1.43622 17.9545 1.63664L18.909 6.81843L12.0909 28.3638L26.9544 49.6364C20.9009 49.2879 15.2105 46.6351 11.0516 42.2226C6.89265 37.8101 4.58087 31.9728 4.59089 25.9092C4.59089 25.3668 4.37539 24.8465 3.99179 24.4629C3.6082 24.0793 3.08793 23.8638 2.54544 23.8638C2.00296 23.8638 1.48269 24.0793 1.0991 24.4629C0.715502 24.8465 0.5 25.3668 0.5 25.9092C0.52312 31.8143 2.40652 37.5618 5.88261 42.3353C9.3587 47.1088 14.2507 50.6655 19.8635 52.5H12.0909V51.8182C12.0909 51.0949 11.8035 50.4012 11.2921 49.8898C10.7806 49.3783 10.0869 49.091 9.3636 49.091H3.90907C3.18576 49.091 2.49207 49.3783 1.98061 49.8898C1.46915 50.4012 1.18181 51.0949 1.18181 51.8182V57.2727C1.18181 57.9961 1.46915 58.6897 1.98061 59.2012C2.49207 59.7127 3.18576 60 3.90907 60H9.3636C10.0869 60 10.7806 59.7127 11.2921 59.2012C11.8035 58.6897 12.0909 57.9961 12.0909 57.2727V56.5909H44.818V57.2727C44.818 57.9961 45.1053 58.6897 45.6168 59.2012C46.1282 59.7127 46.8219 60 47.5452 60H52.9998C53.7231 60 54.4168 59.7127 54.9282 59.2012C55.4397 58.6897 55.727 57.9961 55.727 57.2727V51.8182C55.727 51.0949 55.4397 50.4012 54.9282 49.8898C54.4168 49.3783 53.7231 49.091 52.9998 49.091H47.5452C46.8219 49.091 46.1282 49.3783 45.6168 49.8898C45.1053 50.4012 44.818 51.0949 44.818 51.8182V52.5H37.0453C42.6581 50.6655 47.5501 47.1088 51.0262 42.3353C54.5023 37.5618 56.3857 31.8143 56.4088 25.9092ZM22.8635 12.2729H34.0453L38.818 27.4092L31.1817 38.4546V30.5456C32.017 30.0964 32.7131 29.4265 33.194 28.609C33.6749 27.7915 33.9222 26.8576 33.9089 25.9092C33.9089 24.4626 33.3343 23.0752 32.3113 22.0523C31.2884 21.0294 29.901 20.4547 28.4544 20.4547C27.0078 20.4547 25.6204 21.0294 24.5975 22.0523C23.5746 23.0752 22.9999 24.4626 22.9999 25.9092C22.9866 26.8576 23.2339 27.7915 23.7148 28.609C24.1957 29.4265 24.8918 30.0964 25.7272 30.5456V38.4546L18.0908 27.4092L22.8635 12.2729ZM7.99997 55.9091H5.27271V53.1818H7.99997V55.9091ZM48.9089 53.1818H51.6361V55.9091H48.9089V53.1818Z" fill="#B5D0FF"/>
</svg>