<svg xmlns="http://www.w3.org/2000/svg" width="77" height="60" viewBox="0 0 77 60" fill="none">
  <path d="M50.577 60C49.7257 60 49.0129 59.7128 48.4386 59.1384C47.8642 58.5641 47.5771 57.8513 47.5771 57C47.5771 56.1487 47.8642 55.4359 48.4386 54.8616C49.0129 54.2872 49.7257 54.0001 50.577 54.0001H57.4616C58.8513 54.0001 60.0385 53.527 61.0232 52.5808C62.0078 51.6346 62.5001 50.4667 62.5001 49.077V40.8461C62.5001 38.4667 63.2078 36.3333 64.6232 34.4461C66.0386 32.559 67.8821 31.2462 70.1539 30.5077V29.4923C67.8821 28.7538 66.0386 27.441 64.6232 25.5539C63.2078 23.6667 62.5001 21.5333 62.5001 19.1539V10.923C62.5001 9.5333 62.0078 8.36536 61.0232 7.41923C60.0385 6.47302 58.8513 5.99992 57.4616 5.99992H50.577C49.7257 5.99992 49.0129 5.71276 48.4386 5.13842C47.8642 4.56408 47.5771 3.85128 47.5771 3.00001C47.5771 2.14874 47.8642 1.43594 48.4386 0.861606C49.0129 0.287204 49.7257 0 50.577 0H57.4616C60.5129 0 63.1154 1.06411 65.2692 3.19231C67.4231 5.32052 68.5 7.89743 68.5 10.923V19.1539C68.5 20.5693 68.9987 21.7565 69.9961 22.7155C70.9936 23.6745 72.2129 24.154 73.6539 24.154C74.4795 24.154 75.1603 24.4283 75.6961 24.9771C76.2321 25.5258 76.5001 26.2001 76.5001 27.0001V32.9999C76.5001 33.7999 76.2321 34.4742 75.6961 35.0229C75.1603 35.5717 74.4795 35.846 73.6539 35.846C72.2129 35.846 70.9936 36.3255 69.9961 37.2845C68.9987 38.2435 68.5 39.4307 68.5 40.8461V49.077C68.5 52.1026 67.4231 54.6795 65.2692 56.8077C63.1154 58.9359 60.5129 60 57.4616 60H50.577ZM19.5385 60C16.4872 60 13.8846 58.9359 11.7308 56.8077C9.57696 54.6795 8.50003 52.1026 8.50003 49.077V40.8461C8.50003 39.4307 8.00132 38.2435 7.00392 37.2845C6.00645 36.3255 4.78718 35.846 3.34611 35.846C2.54617 35.846 1.87184 35.5717 1.3231 35.0229C0.774368 34.4742 0.5 33.7999 0.5 32.9999V27.0001C0.5 26.2001 0.774368 25.5258 1.3231 24.9771C1.87184 24.4283 2.54617 24.154 3.34611 24.154C4.78718 24.154 6.00645 23.6745 7.00392 22.7155C8.00132 21.7565 8.50003 20.5693 8.50003 19.1539V10.923C8.50003 7.89743 9.57696 5.32052 11.7308 3.19231C13.8846 1.06411 16.4872 0 19.5385 0H26.4615C27.3128 0 28.0256 0.287204 28.5999 0.861606C29.1743 1.43594 29.4615 2.14874 29.4615 3.00001C29.4615 3.85128 29.1743 4.56408 28.5999 5.13842C28.0256 5.71276 27.3128 5.99992 26.4615 5.99992H19.5385C18.1487 5.99992 16.9615 6.47302 15.9769 7.41923C14.9922 8.36536 14.4999 9.5333 14.4999 10.923V19.1539C14.4999 21.5333 13.7922 23.6667 12.3768 25.5539C10.9615 27.441 9.11793 28.7538 6.84612 29.4923V30.5077C9.11793 31.2462 10.9615 32.559 12.3768 34.4461C13.7922 36.3333 14.4999 38.4667 14.4999 40.8461V49.077C14.4999 50.4667 14.9922 51.6346 15.9769 52.5808C16.9615 53.527 18.1487 54.0001 19.5385 54.0001H26.4615C27.3128 54.0001 28.0256 54.2872 28.5999 54.8616C29.1743 55.4359 29.4615 56.1487 29.4615 57C29.4615 57.8513 29.1743 58.5641 28.5999 59.1384C28.0256 59.7128 27.3128 60 26.4615 60H19.5385Z" fill="#B5D0FF"/>
</svg>