<svg width="377" height="377" viewBox="0 0 377 377" fill="none" xmlns="http://www.w3.org/2000/svg">
<g clip-path="url(#clip0_6331_533)">
<mask id="mask0_6331_533" style="mask-type:luminance" maskUnits="userSpaceOnUse" x="0" y="0" width="377" height="378">
<path d="M264.079 0.000285004L0 112.921L112.921 377L377 264.079L264.079 0.000285004Z" fill="white"/>
</mask>
<g mask="url(#mask0_6331_533)">
<path fill-rule="evenodd" clip-rule="evenodd" d="M167.692 48.8953L188.253 166.738L206.126 48.4583C206.68 44.7948 210.505 42.6062 213.943 43.985L269.941 66.4367C273.379 67.8155 274.633 72.0405 272.502 75.0715L203.714 172.937L299.989 101.939C302.97 99.7407 307.223 100.898 308.68 104.304L332.4 159.776C333.856 163.183 331.755 167.056 328.105 167.692L210.263 188.253L328.542 206.128C332.206 206.681 334.394 210.505 333.016 213.945L310.563 269.941C309.185 273.38 304.96 274.633 301.928 272.503L204.064 203.714L275.061 299.989C277.26 302.971 276.102 307.224 272.697 308.68L217.225 332.4C213.818 333.856 209.944 331.755 209.308 328.106L188.748 210.263L170.873 328.543C170.32 332.206 166.495 334.394 163.056 333.016L107.059 310.563C103.621 309.185 102.367 304.96 104.497 301.929L173.286 204.064L77.0113 275.061C74.0299 277.261 69.7774 276.104 68.3207 272.697L44.6007 217.225C43.1441 213.819 45.2454 209.945 48.895 209.308L166.737 188.748L48.458 170.874C44.7947 170.32 42.6059 166.495 43.9846 163.056L66.4364 107.06C67.8151 103.621 72.0403 102.368 75.0712 104.498L172.937 173.287L101.939 77.0116C99.7402 74.0299 100.897 69.7773 104.304 68.3208L159.776 44.6007C163.182 43.144 167.056 45.2454 167.692 48.8953ZM194.953 203.591C203.287 200.027 207.155 190.382 203.591 182.047C200.027 173.713 190.382 169.846 182.047 173.41C173.713 176.974 169.846 186.619 173.41 194.953C176.974 203.287 186.619 207.155 194.953 203.591Z" fill="url(#paint0_linear_6331_533)"/>
</g>
</g>
<defs>
<linearGradient id="paint0_linear_6331_533" x1="132.039" y1="56.4608" x2="244.961" y2="320.54" gradientUnits="userSpaceOnUse">
<stop stop-color="#E96443"/>
<stop offset="1" stop-color="#904E95"/>
</linearGradient>
<clipPath id="clip0_6331_533">
<rect width="287.209" height="287.209" fill="white" transform="translate(0 112.921) rotate(-23.1517)"/>
</clipPath>
</defs>
</svg>
