<svg width="357" height="357" viewBox="0 0 357 357" fill="none" xmlns="http://www.w3.org/2000/svg">
<g clip-path="url(#clip0_6331_536)">
<path fill-rule="evenodd" clip-rule="evenodd" d="M282.983 113.635C275.285 130.566 258.859 147.012 240.146 157.731C261.531 154.942 284.559 158.095 300.933 166.916L319.522 176.932L301.154 187.345C284.973 196.518 262.018 200.168 240.578 197.84C259.518 208.155 276.295 224.24 284.358 241.001L293.511 260.03L272.53 257.659C254.048 255.571 233.332 245.029 217.353 230.544C226.614 250.02 230.733 272.896 227.403 291.196L223.623 311.97L208.043 297.718C194.318 285.164 183.755 264.46 179.342 243.35C175.386 264.551 165.272 285.478 151.823 298.326L136.553 312.91L132.325 292.222C128.601 274 132.225 251.041 141.063 231.368C125.401 246.195 104.918 257.182 86.4853 259.669L65.5594 262.494L74.2989 243.271C81.9967 226.338 98.4235 209.894 117.137 199.174C95.7508 201.963 72.7227 198.811 56.348 189.99L37.7582 179.975L56.1271 169.561C72.3074 160.388 95.2631 156.738 116.703 159.065C97.7627 148.752 80.9846 132.666 72.9223 115.905L63.7694 96.8755L84.752 99.2475C103.234 101.336 123.95 111.877 139.928 126.362C130.667 106.885 126.548 84.0098 129.878 65.7104L133.659 44.9357L149.239 59.1875C162.964 71.741 173.527 92.4455 177.939 113.556C181.896 92.3544 192.01 71.4274 205.46 58.58L220.729 43.9944L224.957 64.683C228.681 82.9056 225.058 105.865 216.22 125.537C231.881 110.711 252.364 99.7245 270.797 97.2367L291.724 94.4119L282.983 113.635ZM161.881 211.895C180.228 220.995 202.478 213.498 211.577 195.152C220.677 176.806 213.181 154.556 194.834 145.456C176.488 136.356 154.238 143.852 145.138 162.199C136.039 180.546 143.535 202.796 161.881 211.895Z" fill="url(#paint0_linear_6331_536)"/>
</g>
<defs>
<linearGradient id="paint0_linear_6331_536" x1="133.659" y1="44.9357" x2="223.624" y2="311.97" gradientUnits="userSpaceOnUse">
<stop stop-color="#43C6AC"/>
<stop offset="1" stop-color="#F8FFAE"/>
</linearGradient>
<clipPath id="clip0_6331_536">
<rect width="281.782" height="281.782" fill="white" transform="translate(0 89.9663) rotate(-18.6191)"/>
</clipPath>
</defs>
</svg>
