<svg xmlns="http://www.w3.org/2000/svg" width="61" height="60" viewBox="0 0 61 60" fill="none">
  <path fill-rule="evenodd" clip-rule="evenodd" d="M23.2941 51.489C23.8677 52.564 24.442 53.5327 24.991 54.391C19.1582 53.0793 14.0969 49.729 10.5946 45.1277C12.906 43.826 15.8665 42.4767 19.4255 41.4893C20.4371 45.4567 21.8641 48.8077 23.2941 51.489ZM27.706 49.136C26.4637 46.807 25.2187 43.8983 24.3217 40.452C26.2527 40.1653 28.314 40 30.5003 40C32.6863 40 34.7477 40.1653 36.6783 40.4517C35.7813 43.8983 34.5363 46.807 33.294 49.136C32.298 51.0037 31.3057 52.4947 30.5 53.5857C29.6943 52.4947 28.702 51.0037 27.706 49.136ZM23 30C23 31.947 23.131 33.795 23.362 35.5397C25.5897 35.198 27.9713 35 30.5003 35C33.029 35 35.4107 35.1977 37.638 35.5397C37.869 33.7947 38 31.947 38 30C38 28.053 37.869 26.2053 37.638 24.4603C35.4107 24.802 33.029 25 30.5003 25C27.9713 25 25.5897 24.802 23.362 24.4603C23.131 26.205 23 28.053 23 30ZM18.4563 23.4293C18.1659 25.4927 18 27.6847 18 30C18 32.3153 18.1659 34.5073 18.4563 36.5707C14.2113 37.7103 10.6961 39.3173 7.97747 40.8637C6.38993 37.5787 5.5 33.8933 5.5 30C5.5 26.1067 6.38993 22.4215 7.97743 19.1363C10.6957 20.6824 14.211 22.2895 18.4563 23.4293ZM24.3217 19.5482C26.2527 19.8347 28.314 20 30.5003 20C32.6863 20 34.7477 19.8348 36.6783 19.5482C35.7813 16.1018 34.5363 13.1931 33.294 10.864C32.298 8.99647 31.3057 7.5052 30.5 6.4144C29.6943 7.5052 28.702 8.99647 27.706 10.8639C26.4637 13.193 25.2187 16.1018 24.3217 19.5482ZM42.5437 23.4297C42.834 25.493 43 27.685 43 30C43 32.3153 42.834 34.507 42.5437 36.5703C46.7887 37.7103 50.304 39.3173 53.0227 40.8637C54.61 37.5783 55.5 33.893 55.5 30C55.5 26.107 54.61 22.4216 53.0227 19.1364C50.3043 20.6826 46.789 22.2897 42.5437 23.4297ZM50.4053 14.8726C48.0937 16.1744 45.1333 17.5235 41.5747 18.5109C40.563 14.5435 39.136 11.1923 37.706 8.51107C37.1323 7.4359 36.558 6.4675 36.009 5.609C41.842 6.92077 46.9033 10.2712 50.4053 14.8726ZM19.4255 18.5108C15.8667 17.5234 12.9063 16.1742 10.5946 14.8724C14.0969 10.2711 19.1582 6.92077 24.9907 5.609C24.442 6.4675 23.8677 7.43587 23.2941 8.511C21.8641 11.1922 20.4371 14.5434 19.4255 18.5108ZM41.5747 41.489C40.563 45.4567 39.136 48.8077 37.706 51.489C37.1323 52.564 36.558 53.5327 36.009 54.391C41.842 53.0793 46.9033 49.7287 50.4057 45.1273C48.094 43.8257 45.1337 42.4767 41.5747 41.489ZM30.5 60C47.0687 60 60.5 46.5687 60.5 30C60.5 13.4315 47.0687 0 30.5 0C13.9315 0 0.5 13.4315 0.5 30C0.5 46.5687 13.9315 60 30.5 60Z" fill="#B5D0FF"/>
</svg>