<svg width="508" height="65" viewBox="0 0 508 65" fill="none" xmlns="http://www.w3.org/2000/svg">
<path d="M79.5898 24.2759C77.8673 23.2962 76.441 21.8699 75.4612 20.1474C74.4673 18.3718 73.9453 16.371 73.9453 14.3361C73.9453 12.3012 74.4673 10.3003 75.4612 8.5247C76.442 6.80171 77.868 5.37407 79.5898 4.39119C81.327 3.39625 83.2971 2.88007 85.299 2.89535C86.8539 2.88473 88.3962 3.17421 89.8414 3.74796C91.1776 4.27068 92.3729 5.09888 93.3317 6.16626L91.4619 8.03107C90.7512 7.15385 89.8325 6.46824 88.7893 6.03662C87.6834 5.57666 86.4967 5.3427 85.299 5.34853C83.7942 5.34127 82.3133 5.72436 81.0009 6.46043C79.6676 7.20605 78.5574 8.29387 77.7848 9.61167C76.9931 11.0506 76.5779 12.6663 76.5779 14.3086C76.5779 15.951 76.9931 17.5667 77.7848 19.0056C78.5492 20.3315 79.6567 21.427 80.9909 22.1768C82.302 22.9167 83.7835 23.3017 85.289 23.2937C86.4521 23.3514 87.614 23.1588 88.6962 22.7286C89.7783 22.2985 90.7555 21.641 91.5616 20.8006C92.1147 20.1926 92.5509 19.4877 92.848 18.7214C93.1804 17.87 93.3756 16.9713 93.4264 16.0588H85.3488V13.6405H95.8746C95.9699 14.1654 96.02 14.6976 96.0242 15.2311C96.0273 16.5684 95.8117 17.8973 95.386 19.1651C94.9667 20.4234 94.2658 21.5694 93.3367 22.5158C91.2724 24.6931 88.5898 25.7834 85.289 25.7867C83.2889 25.7979 81.3218 25.2764 79.5898 24.2759Z" fill="#D7D7D7"/>
<path d="M101.757 24.7258C100.584 24.0305 99.626 23.0245 98.9892 21.8189C98.3324 20.5463 97.9897 19.135 97.9897 17.7028C97.9897 16.2707 98.3324 14.8594 98.9892 13.5868C99.6245 12.3801 100.583 11.3737 101.757 10.6798C102.966 9.97232 104.345 9.60853 105.745 9.62776C107.157 9.60747 108.548 9.9711 109.769 10.6798C110.949 11.3717 111.912 12.3783 112.552 13.5868C113.204 14.8608 113.544 16.2716 113.544 17.7028C113.544 19.1341 113.204 20.5448 112.552 21.8189C111.911 23.0264 110.948 24.0327 109.769 24.7258C108.548 25.4345 107.157 25.7982 105.745 25.7779C104.345 25.7971 102.966 25.4333 101.757 24.7258ZM108.333 22.7314C109.14 22.2521 109.802 21.5627 110.248 20.7369C110.72 19.8022 110.966 18.7698 110.966 17.7228C110.966 16.6757 110.72 15.6433 110.248 14.7086C109.802 13.8828 109.14 13.1935 108.333 12.7142C107.561 12.2531 106.678 12.0096 105.778 12.0096C104.878 12.0096 103.995 12.2531 103.222 12.7142C102.417 13.1938 101.757 13.8832 101.313 14.7086C100.841 15.6433 100.595 16.6757 100.595 17.7228C100.595 18.7698 100.841 19.8022 101.313 20.7369C101.757 21.5624 102.417 22.2517 103.222 22.7314C103.995 23.1925 104.878 23.436 105.778 23.436C106.678 23.436 107.561 23.1925 108.333 22.7314Z" fill="#D7D7D7"/>
<path d="M119.105 24.7258C117.934 24.0291 116.976 23.0234 116.338 21.8189C115.681 20.5463 115.338 19.135 115.338 17.7028C115.338 16.2707 115.681 14.8594 116.338 13.5868C116.975 12.3812 117.932 11.3752 119.105 10.6798C120.314 9.97232 121.693 9.60853 123.094 9.62776C124.506 9.60747 125.897 9.9711 127.118 10.6798C128.297 11.3717 129.261 12.3783 129.9 13.5868C130.557 14.8594 130.9 16.2707 130.9 17.7028C130.9 19.135 130.557 20.5463 129.9 21.8189C129.259 23.0264 128.296 24.0327 127.118 24.7258C125.897 25.4345 124.506 25.7982 123.094 25.7779C121.693 25.7971 120.314 25.4333 119.105 24.7258ZM125.682 22.7314C126.489 22.2521 127.151 21.5627 127.597 20.7369C128.069 19.8022 128.315 18.7698 128.315 17.7228C128.315 16.6757 128.069 15.6433 127.597 14.7086C127.151 13.8828 126.489 13.1935 125.682 12.7142C124.909 12.2531 124.026 12.0096 123.127 12.0096C122.227 12.0096 121.344 12.2531 120.571 12.7142C119.766 13.1938 119.106 13.8832 118.661 14.7086C118.189 15.6433 117.944 16.6757 117.944 17.7228C117.944 18.7698 118.189 19.8022 118.661 20.7369C119.106 21.5624 119.766 22.2517 120.571 22.7314C121.344 23.1925 122.227 23.436 123.127 23.436C124.026 23.436 124.909 23.1925 125.682 22.7314Z" fill="#D7D7D7"/>
<path d="M135.719 31.0731C134.639 30.3131 133.813 29.2466 133.346 28.0116L135.764 27.0143C136.06 27.8991 136.634 28.6649 137.399 29.1983C138.22 29.771 139.202 30.0663 140.202 30.0409C141.814 30.0409 143.052 29.5739 143.916 28.6398C144.781 27.7058 145.214 26.3994 145.218 24.7207V23.0952H145.093C144.567 23.9082 143.84 24.5726 142.984 25.0249C142.026 25.5433 140.951 25.806 139.863 25.7877C138.594 25.7919 137.351 25.4301 136.283 24.7457C135.166 24.0329 134.26 23.0366 133.655 21.8587C133.009 20.5721 132.672 19.1523 132.672 17.7127C132.672 16.273 133.009 14.8533 133.655 13.5667C134.26 12.3887 135.166 11.3925 136.283 10.6797C137.35 9.99322 138.594 9.6312 139.863 9.63761C140.951 9.61931 142.026 9.88208 142.984 10.4005C143.839 10.8525 144.565 11.5149 145.093 12.3252H145.218V10.1263H147.711V24.6709C147.749 26.1507 147.406 27.6156 146.714 28.924C146.105 30.0426 145.171 30.9501 144.036 31.5268C142.841 32.1093 141.526 32.4015 140.197 32.3794C138.601 32.4483 137.027 31.9892 135.719 31.0731ZM142.755 22.7312C143.532 22.2451 144.161 21.5553 144.575 20.7368C145.052 19.7939 145.289 18.7471 145.263 17.6902C145.287 16.6305 145.05 15.581 144.575 14.6337C144.167 13.8113 143.536 13.1202 142.755 12.6393C142.003 12.1854 141.139 11.9505 140.261 11.9612C139.382 11.951 138.517 12.1913 137.768 12.6543C136.991 13.1404 136.362 13.8302 135.948 14.6487C135.495 15.5995 135.26 16.6395 135.26 17.6927C135.26 18.746 135.495 19.786 135.948 20.7368C136.362 21.5553 136.991 22.2451 137.768 22.7312C138.515 23.1846 139.373 23.4243 140.247 23.4243C141.12 23.4243 141.978 23.1846 142.725 22.7312H142.755Z" fill="#D7D7D7"/>
<path d="M151.232 3.38428H153.83V25.2885H151.232V3.38428Z" fill="#D7D7D7"/>
<path d="M159.989 24.7412C158.841 24.0474 157.905 23.0524 157.282 21.8641C156.611 20.58 156.268 19.1496 156.285 17.7007C156.269 16.2963 156.583 14.9078 157.202 13.647C157.789 12.4463 158.694 11.4303 159.82 10.7101C160.987 9.97808 162.342 9.60208 163.719 9.62812C165.076 9.59942 166.414 9.94441 167.588 10.6254C168.698 11.2856 169.588 12.2587 170.146 13.4226C170.757 14.724 171.061 16.1485 171.034 17.586C171.041 17.7925 171.02 17.999 170.969 18.1993H158.937C158.946 19.2181 159.234 20.2151 159.77 21.0813C160.239 21.8291 160.9 22.437 161.685 22.8414C162.416 23.2224 163.228 23.4224 164.053 23.4248C165.971 23.4248 167.45 22.4857 168.491 20.6076L170.789 21.7096C170.153 22.9098 169.219 23.9262 168.077 24.6614C166.855 25.3791 165.466 25.7641 164.049 25.7781C162.632 25.7921 161.236 25.4346 159.999 24.7412H159.989ZM168.301 16.0204C168.251 15.38 168.073 14.7561 167.778 14.1854C167.435 13.5353 166.917 12.9945 166.282 12.6248C165.49 12.1673 164.584 11.9442 163.669 11.9816C162.568 11.9548 161.498 12.3489 160.678 13.0835C159.824 13.849 159.261 14.8869 159.087 16.0204H168.301Z" fill="#D7D7D7"/>
<path d="M180.998 3.38369H187.635C189.679 3.33542 191.702 3.8145 193.508 4.77481C195.142 5.66274 196.481 7.00727 197.363 8.64407C198.248 10.4108 198.709 12.3597 198.709 14.3358C198.709 16.3119 198.248 18.2607 197.363 20.0275C196.481 21.6643 195.142 23.0088 193.508 23.8967C191.702 24.857 189.679 25.3361 187.635 25.2878H180.998V3.38369ZM187.635 22.8297C190.227 22.8297 192.278 22.0851 193.788 20.5959C195.297 19.1067 196.051 17.0258 196.051 14.3532C196.051 11.6856 195.293 9.60141 193.788 8.11554C192.282 6.62967 190.227 5.88176 187.635 5.88176H183.596V22.8347L187.635 22.8297Z" fill="#D7D7D7"/>
<path d="M204.6 24.7412C203.448 24.0517 202.511 23.0556 201.893 21.8641C201.217 20.5817 200.874 19.1501 200.895 17.7007C200.883 16.2966 201.197 14.9089 201.813 13.647C202.404 12.4444 203.315 11.4281 204.446 10.7101C205.613 9.97808 206.968 9.60208 208.345 9.62812C209.702 9.59942 211.04 9.94441 212.214 10.6254C213.323 11.2856 214.213 12.2587 214.772 13.4226C215.383 14.724 215.687 16.1485 215.66 17.586C215.675 17.7882 215.66 17.9917 215.615 18.1894H203.543C203.547 19.2097 203.833 20.2091 204.371 21.0763C204.837 21.8249 205.497 22.4332 206.281 22.8365C207.007 23.2166 207.814 23.4183 208.634 23.4248C210.549 23.4248 212.026 22.4857 213.067 20.6076L215.36 21.7096C214.738 22.9139 213.811 23.9349 212.673 24.6714C211.452 25.3891 210.064 25.7742 208.647 25.7882C207.231 25.8022 205.835 25.4446 204.6 24.7511V24.7412ZM212.902 16.0204C212.86 15.3817 212.69 14.7578 212.404 14.1854C212.062 13.535 211.543 12.9941 210.908 12.6248C210.113 12.1684 209.206 11.9455 208.29 11.9816C207.197 11.9612 206.138 12.3548 205.323 13.0835C204.469 13.849 203.907 14.8869 203.733 16.0204H212.902Z" fill="#D7D7D7"/>
<path d="M216.269 10.1143H219.106L223.758 22.2306H223.818L228.53 10.1143H231.282L225.069 25.2871H222.441L216.269 10.1143Z" fill="#D7D7D7"/>
<path d="M236.017 24.7411C234.868 24.0488 233.931 23.0534 233.31 21.8641C232.636 20.5808 232.293 19.1498 232.313 17.7007C232.297 16.2962 232.611 14.9078 233.23 13.6469C233.813 12.4454 234.717 11.4289 235.843 10.7101C237.011 9.97762 238.368 9.60163 239.747 9.62806C241.104 9.59988 242.442 9.94483 243.616 10.6253C244.724 11.2858 245.612 12.259 246.169 13.4225C246.782 14.7232 247.086 16.1482 247.057 17.586C247.074 17.7875 247.064 17.9905 247.027 18.1893H234.96C234.968 19.209 235.254 20.2072 235.788 21.0763C236.254 21.8261 236.916 22.4347 237.703 22.8364C238.434 23.2179 239.246 23.4179 240.071 23.4198C241.992 23.4198 243.472 22.4807 244.509 20.6026L246.802 21.7045C246.17 22.9055 245.237 23.9224 244.095 24.6563C242.873 25.3741 241.484 25.7591 240.067 25.7731C238.649 25.7871 237.253 25.4296 236.017 24.7361V24.7411ZM244.324 16.0203C244.282 15.3816 244.112 14.7578 243.826 14.1854C243.482 13.5363 242.964 12.9959 242.33 12.6247C241.536 12.1671 240.628 11.9441 239.712 11.9815C238.619 11.9616 237.56 12.3552 236.745 13.0835C235.893 13.8505 235.331 14.8876 235.155 16.0203H244.324Z" fill="#D7D7D7"/>
<path d="M249.714 3.38428H252.311V25.2885H249.714V3.38428Z" fill="#D7D7D7"/>
<path d="M258.55 24.7258C257.379 24.0291 256.421 23.0234 255.783 21.8189C255.126 20.5463 254.784 19.135 254.784 17.7028C254.784 16.2707 255.126 14.8594 255.783 13.5868C256.42 12.3812 257.378 11.3752 258.55 10.6798C259.759 9.97232 261.139 9.60853 262.539 9.62776C263.951 9.60747 265.342 9.9711 266.563 10.6798C267.743 11.3717 268.706 12.3783 269.346 13.5868C270.002 14.8594 270.345 16.2707 270.345 17.7028C270.345 19.135 270.002 20.5463 269.346 21.8189C268.705 23.0264 267.742 24.0327 266.563 24.7258C265.342 25.4345 263.951 25.7982 262.539 25.7779C261.139 25.7971 259.759 25.4333 258.55 24.7258ZM265.127 22.7314C265.935 22.2534 266.597 21.5638 267.042 20.7369C267.514 19.8022 267.76 18.7698 267.76 17.7228C267.76 16.6757 267.514 15.6433 267.042 14.7086C266.597 13.8818 265.935 13.1921 265.127 12.7142C264.355 12.2531 263.472 12.0096 262.572 12.0096C261.672 12.0096 260.789 12.2531 260.016 12.7142C259.211 13.1938 258.551 13.8832 258.107 14.7086C257.635 15.6433 257.389 16.6757 257.389 17.7228C257.389 18.7698 257.635 19.8022 258.107 20.7369C258.551 21.5624 259.211 22.2517 260.016 22.7314C260.789 23.1925 261.672 23.436 262.572 23.436C263.472 23.436 264.355 23.1925 265.127 22.7314Z" fill="#D7D7D7"/>
<path d="M272.72 10.1165H275.213V12.3453H275.337C275.868 11.5329 276.593 10.8661 277.447 10.4057C278.421 9.87303 279.518 9.60485 280.628 9.62783C281.908 9.61943 283.163 9.98509 284.238 10.6799C285.353 11.397 286.261 12.3941 286.87 13.5719C287.513 14.8541 287.848 16.2686 287.848 17.7029C287.848 19.1372 287.513 20.5517 286.87 21.8339C286.258 23.0097 285.351 24.0063 284.238 24.7259C283.163 25.4207 281.908 25.7863 280.628 25.7779C279.513 25.7996 278.412 25.5316 277.432 25.0001C276.568 24.5346 275.845 23.8458 275.337 23.0056H275.213L275.337 25.1148V31.876H272.735L272.72 10.1165ZM282.692 22.7214C283.474 22.2366 284.109 21.5468 284.527 20.727C284.983 19.7877 285.22 18.757 285.22 17.7128C285.22 16.6686 284.983 15.6381 284.527 14.6987C284.109 13.8789 283.474 13.1891 282.692 12.7043C281.944 12.2399 281.08 11.9962 280.199 12.0012C279.32 11.9965 278.458 12.2346 277.706 12.6893C276.922 13.172 276.287 13.8623 275.871 14.6838C275.418 15.632 275.183 16.6695 275.183 17.7203C275.183 18.7712 275.418 19.8087 275.871 20.7569C276.285 21.5796 276.92 22.2703 277.706 22.7514C278.458 23.2061 279.32 23.4442 280.199 23.4394C281.086 23.4428 281.956 23.1938 282.707 22.7214H282.692Z" fill="#D7D7D7"/>
<path d="M293.9 24.7411C292.75 24.0488 291.813 23.0534 291.192 21.8641C290.518 20.5808 290.176 19.1498 290.195 17.7006C290.179 16.2962 290.494 14.9077 291.112 13.6469C291.695 12.4454 292.6 11.4289 293.725 10.7101C294.894 9.97762 296.25 9.60163 297.629 9.62806C298.986 9.59988 300.324 9.94483 301.498 10.6253C302.606 11.2858 303.495 12.259 304.051 13.4225C304.665 14.7232 304.968 16.1482 304.939 17.5859C304.948 17.7922 304.927 17.9986 304.879 18.1993H292.823C292.831 19.219 293.117 20.2171 293.65 21.0862C294.117 21.8361 294.779 22.4446 295.565 22.8464C296.296 23.2278 297.109 23.4279 297.933 23.4297C299.851 23.4297 301.331 22.4907 302.371 20.6125L304.665 21.7145C304.032 22.9155 303.099 23.9324 301.957 24.6663C300.735 25.384 299.346 25.7691 297.929 25.7831C296.512 25.7971 295.116 25.4395 293.88 24.7461L293.9 24.7411ZM302.207 16.0203C302.164 15.3816 301.995 14.7578 301.708 14.1854C301.364 13.5363 300.846 12.9959 300.212 12.6247C299.418 12.1671 298.51 11.9441 297.594 11.9815C296.493 11.9553 295.424 12.3493 294.603 13.0835C293.751 13.8504 293.189 14.8876 293.012 16.0203H302.207Z" fill="#D7D7D7"/>
<path d="M307.594 10.1155H310.087V12.6086H310.207C310.534 11.723 311.155 10.9766 311.967 10.4944C312.748 9.95948 313.668 9.66323 314.615 9.64181C315.22 9.63636 315.821 9.73937 316.39 9.94595V12.7033C315.725 12.3729 314.988 12.2151 314.246 12.2446C313.533 12.2478 312.837 12.4668 312.251 12.8728C311.621 13.2956 311.106 13.8699 310.755 14.5432C310.386 15.2437 310.196 16.0249 310.202 16.8169V25.2933H307.604L307.594 10.1155Z" fill="#D7D7D7"/>
<path d="M327.771 25.0891C326.688 24.6028 325.728 23.8786 324.964 22.9705C324.199 22.0624 323.648 20.9937 323.353 19.8437L325.846 18.8464C326.152 20.0869 326.822 21.2073 327.771 22.0625C328.666 22.8786 329.836 23.3258 331.047 23.314C332.209 23.3605 333.353 23.0087 334.288 22.3168C334.716 21.9897 335.059 21.5643 335.289 21.0766C335.518 20.5888 335.626 20.053 335.604 19.5146C335.615 19.0377 335.521 18.5644 335.328 18.1283C335.135 17.6922 334.848 17.304 334.487 16.9916C333.399 16.147 332.158 15.5191 330.833 15.1417L329.456 14.6431C328.059 14.1797 326.768 13.4405 325.662 12.4692C325.158 11.9913 324.764 11.4101 324.505 10.7655C324.247 10.1209 324.131 9.42803 324.166 8.7345C324.165 7.70767 324.463 6.70275 325.024 5.84254C325.617 4.94044 326.435 4.20838 327.397 3.71843C328.452 3.17871 329.623 2.90648 330.808 2.92565C331.954 2.90024 333.091 3.14087 334.128 3.62868C334.994 4.03482 335.765 4.61735 336.392 5.33893C336.9 5.92286 337.29 6.60033 337.539 7.33339L335.121 8.37551C334.872 7.56098 334.381 6.84118 333.715 6.31124C332.905 5.67734 331.894 5.35687 330.867 5.40874C329.828 5.38156 328.811 5.71645 327.99 6.35613C327.623 6.62959 327.325 6.98536 327.119 7.39493C326.914 7.8045 326.808 8.25646 326.809 8.71457C326.8 9.11799 326.885 9.51792 327.058 9.8824C327.232 10.2469 327.488 10.5658 327.806 10.8137C328.737 11.477 329.772 11.9824 330.867 12.3096L332.274 12.8082C333.888 13.3361 335.374 14.1955 336.636 15.3312C337.171 15.8693 337.587 16.5131 337.859 17.2215C338.13 17.9299 338.25 18.6872 338.212 19.4448C338.254 20.716 337.871 21.965 337.125 22.9949C336.423 23.9358 335.476 24.6654 334.388 25.104C333.299 25.5504 332.134 25.779 330.957 25.7772C329.859 25.7748 328.773 25.5403 327.771 25.0891Z" fill="#D7D7D7"/>
<path d="M344.539 25.4668C344.044 25.2764 343.592 24.99 343.208 24.6241C342.805 24.2372 342.496 23.763 342.305 23.238C342.099 22.6315 342.002 21.9936 342.016 21.3532V12.4679H339.323V10.1145H342.016V5.58203H344.584V10.1145H348.319V12.4679H344.584V20.73C344.522 21.4146 344.698 22.0995 345.083 22.6696C345.271 22.9057 345.515 23.0922 345.792 23.213C346.069 23.3337 346.372 23.3851 346.673 23.3627C347.255 23.3767 347.829 23.2264 348.329 22.9289V25.4219C348.026 25.5361 347.714 25.6229 347.396 25.6812C347.005 25.7374 346.61 25.7624 346.214 25.756C345.643 25.7646 345.075 25.6665 344.539 25.4668Z" fill="#D7D7D7"/>
<path d="M352.372 24.1702C351.375 23.0882 350.916 21.5924 350.916 19.6827V10.1143H353.514V19.229C353.514 22.0278 354.768 23.4256 357.278 23.4223C358.083 23.4321 358.871 23.186 359.527 22.7193C360.189 22.2525 360.717 21.6197 361.058 20.8843C361.413 20.1385 361.595 19.3221 361.591 18.496V10.1143H364.164V25.2871H361.711V23.0234H361.586C361.091 23.843 360.389 24.5186 359.552 24.983C358.667 25.5056 357.658 25.7795 356.63 25.7757C354.758 25.7757 353.339 25.2406 352.372 24.1702Z" fill="#D7D7D7"/>
<path d="M370.283 24.74C369.165 24.0265 368.256 23.0284 367.65 21.848C367.008 20.5604 366.673 19.1411 366.673 17.702C366.673 16.263 367.008 14.8436 367.65 13.556C368.256 12.3756 369.165 11.3775 370.283 10.664C371.362 9.9782 372.615 9.61811 373.893 9.62695C375.003 9.60967 376.098 9.8775 377.074 10.4048C377.937 10.8552 378.666 11.524 379.188 12.3444H379.308L379.188 10.2652V3.38428H381.756V25.2884H379.308V23.0247H379.188C378.676 23.8676 377.946 24.5566 377.074 25.0192C376.098 25.5465 375.003 25.8143 373.893 25.797C372.613 25.7999 371.359 25.4328 370.283 24.74ZM376.765 22.7455C377.551 22.2645 378.186 21.5737 378.6 20.7511C379.053 19.8028 379.288 18.7653 379.288 17.7145C379.288 16.6636 379.053 15.6261 378.6 14.6779C378.184 13.8564 377.549 13.1661 376.765 12.6835C376.014 12.228 375.151 11.9898 374.272 11.9954C373.391 11.9903 372.527 12.234 371.779 12.6984C370.997 13.1833 370.362 13.873 369.944 14.6929C369.491 15.6331 369.256 16.6633 369.256 17.707C369.256 18.7506 369.491 19.7809 369.944 20.7211C370.362 21.541 370.997 22.2307 371.779 22.7156C372.527 23.18 373.391 23.4237 374.272 23.4186C375.157 23.4294 376.027 23.1928 376.785 22.7355L376.765 22.7455Z" fill="#D7D7D7"/>
<path d="M387.946 24.7412C386.799 24.046 385.863 23.0514 385.239 21.8641C384.568 20.58 384.225 19.1496 384.242 17.7007C384.226 16.2963 384.54 14.9078 385.159 13.647C385.746 12.4463 386.651 11.4303 387.777 10.7101C388.944 9.97808 390.299 9.60208 391.676 9.62812C393.033 9.59942 394.371 9.94441 395.545 10.6254C396.655 11.2856 397.544 12.2587 398.103 13.4226C398.714 14.724 399.018 16.1485 398.991 17.586C399.001 17.7926 398.979 17.9995 398.926 18.1993H386.874C386.879 19.2189 387.163 20.2176 387.697 21.0863C388.166 21.8341 388.827 22.442 389.612 22.8464C390.343 23.2266 391.155 23.4266 391.98 23.4298C393.898 23.4298 395.377 22.4907 396.418 20.6126L398.716 21.7146C398.08 22.9127 397.148 23.9287 396.009 24.6664C394.786 25.384 393.396 25.769 391.978 25.783C390.56 25.797 389.163 25.4396 387.926 24.7462L387.946 24.7412ZM396.258 16.0204C396.215 15.3817 396.046 14.7579 395.76 14.1854C395.418 13.5343 394.9 12.9932 394.264 12.6248C393.471 12.1673 392.565 11.9442 391.651 11.9816C390.55 11.9548 389.48 12.3489 388.659 13.0835C387.805 13.849 387.243 14.8869 387.069 16.0204H396.258Z" fill="#D7D7D7"/>
<path d="M401.639 10.1156H404.132V12.3793H404.257C404.729 11.5554 405.419 10.8774 406.251 10.4198C407.142 9.89818 408.156 9.62446 409.188 9.62697C411.043 9.62697 412.456 10.1671 413.426 11.2475C414.397 12.3278 414.881 13.8053 414.877 15.6801V25.2885H412.31V16.079C412.31 13.3466 411.035 11.9804 408.485 11.9804C407.694 11.9721 406.921 12.2186 406.281 12.6835C405.635 13.1577 405.12 13.7893 404.785 14.5184C404.43 15.2642 404.248 16.0806 404.252 16.9067V25.2885H401.649L401.639 10.1156Z" fill="#D7D7D7"/>
<path d="M421.665 25.4668C421.171 25.274 420.719 24.9879 420.334 24.6241C419.931 24.2372 419.622 23.763 419.431 23.238C419.225 22.6315 419.128 21.9935 419.142 21.3532V12.4679H416.449V10.1145H419.142V5.58203H421.71V10.1145H425.444V12.4679H421.71V20.73C421.656 21.4175 421.841 22.1027 422.233 22.6696C422.421 22.9067 422.665 23.0939 422.942 23.2148C423.219 23.3356 423.522 23.3864 423.824 23.3627C424.404 23.376 424.976 23.2257 425.474 22.9289V25.4219C425.172 25.5368 424.86 25.6236 424.542 25.6812C424.152 25.7376 423.759 25.7626 423.365 25.756C422.785 25.7676 422.208 25.6695 421.665 25.4668Z" fill="#D7D7D7"/>
<path d="M439.366 24.2759C437.651 23.2989 436.237 21.8711 435.277 20.1474C434.305 18.3646 433.796 16.3665 433.796 14.336C433.796 12.3055 434.305 10.3074 435.277 8.52463C436.239 6.80048 437.652 5.37134 439.366 4.39111C441.115 3.3893 443.099 2.87288 445.115 2.89526C446.66 2.87718 448.192 3.19533 449.602 3.82767C450.945 4.44484 452.136 5.34856 453.093 6.47532L451.258 8.28031C450.524 7.3455 449.586 6.59152 448.515 6.07643C447.434 5.59216 446.259 5.3521 445.075 5.37337C443.555 5.35969 442.058 5.74298 440.732 6.4853C439.41 7.22875 438.315 8.31811 437.566 9.63653C436.794 11.0819 436.39 12.6951 436.39 14.3335C436.39 15.972 436.794 17.5851 437.566 19.0305C438.313 20.3511 439.408 21.4411 440.732 22.1817C442.544 23.1939 444.655 23.5329 446.692 23.1387C448.73 22.7445 450.563 21.6426 451.866 20.0277L453.736 21.8626C452.716 23.0787 451.441 24.0557 450.001 24.7247C448.458 25.4384 446.775 25.7978 445.075 25.7767C443.072 25.7927 441.102 25.2746 439.366 24.2759Z" fill="#D7D7D7"/>
<path d="M456.312 3.38428H458.91V25.2885H456.312V3.38428Z" fill="#D7D7D7"/>
<path d="M463.732 24.1702C462.765 23.0882 462.281 21.5924 462.281 19.6827V10.1143H464.879V19.229C464.879 22.0278 466.134 23.4256 468.643 23.4223C469.448 23.4315 470.236 23.1853 470.892 22.7193C471.553 22.2512 472.081 21.6187 472.423 20.8843C472.776 20.1376 472.958 19.3218 472.956 18.496V10.1143H475.524V25.2871H473.076V23.0234H472.956C472.461 23.843 471.76 24.5186 470.922 24.983C470.037 25.5056 469.028 25.7795 468 25.7757C466.122 25.7757 464.699 25.2406 463.732 24.1702Z" fill="#D7D7D7"/>
<path d="M483.742 24.9993C482.876 24.5345 482.151 23.8456 481.643 23.0048H481.523V25.2685H479.03V3.38428H481.628V10.2652L481.508 12.3444H481.628C482.161 11.5331 482.887 10.8666 483.742 10.4048C484.716 9.87215 485.813 9.60398 486.923 9.62695C488.203 9.61856 489.458 9.98422 490.533 10.679C491.648 11.3961 492.556 12.3933 493.166 13.571C493.808 14.8532 494.143 16.2678 494.143 17.702C494.143 19.1363 493.808 20.5508 493.166 21.8331C492.553 23.0089 491.646 24.0055 490.533 24.725C489.458 25.4198 488.203 25.7855 486.923 25.7771C485.813 25.7962 484.717 25.5282 483.742 24.9993ZM489.032 22.7206C489.814 22.2357 490.449 21.546 490.867 20.7261C491.32 19.7859 491.555 18.7556 491.555 17.712C491.555 16.6683 491.32 15.6381 490.867 14.6979C490.449 13.878 489.814 13.1883 489.032 12.7034C488.284 12.239 487.42 11.9953 486.539 12.0004C485.66 11.9948 484.797 12.233 484.046 12.6884C483.262 13.1711 482.627 13.8614 482.211 14.6829C481.758 15.6311 481.523 16.6686 481.523 17.7195C481.523 18.7703 481.758 19.8078 482.211 20.7561C482.625 21.5787 483.26 22.2695 484.046 22.7505C484.797 23.206 485.66 23.4442 486.539 23.4386C487.421 23.4392 488.285 23.1903 489.032 22.7206Z" fill="#D7D7D7"/>
<path d="M497.888 24.554C496.818 23.8013 495.998 22.7454 495.534 21.5224L497.828 20.5252C498.182 21.4101 498.782 22.1749 499.558 22.7291C500.271 23.228 501.121 23.4945 501.991 23.492C502.847 23.5257 503.693 23.3016 504.42 22.8487C504.702 22.6945 504.94 22.4696 505.109 22.1961C505.279 21.9225 505.374 21.6096 505.387 21.288C505.39 21.0046 505.327 20.7244 505.202 20.4698C505.077 20.2153 504.895 19.9935 504.669 19.8221C503.923 19.3271 503.086 18.9879 502.206 18.8249L500.126 18.3263C499.047 18.0952 498.041 17.6001 497.2 16.8853C496.804 16.5472 496.49 16.124 496.281 15.6474C496.072 15.1707 495.973 14.653 495.993 14.1329C495.971 13.2578 496.258 12.403 496.806 11.7196C497.373 11.0249 498.117 10.4961 498.96 10.1889C499.899 9.84136 500.895 9.67226 501.897 9.69026C503.143 9.67395 504.373 9.98515 505.462 10.5928C506.496 11.151 507.303 12.0544 507.74 13.1457L505.447 14.1429C505.152 13.4452 504.623 12.8721 503.951 12.5224C503.264 12.1787 502.504 12.0076 501.737 12.0238C500.978 12.0144 500.231 12.2145 499.578 12.6022C499.296 12.7397 499.057 12.9519 498.888 13.2156C498.718 13.4793 498.624 13.7845 498.616 14.098C498.609 14.3429 498.664 14.5855 498.773 14.8046C498.883 15.0237 499.044 15.2125 499.244 15.3545C499.856 15.7422 500.531 16.0205 501.238 16.1772L503.502 16.7307C504.766 16.9873 505.937 17.5837 506.888 18.4559C507.246 18.8148 507.53 19.2419 507.721 19.7121C507.912 20.1823 508.006 20.6859 508 21.1933C508.007 22.0504 507.739 22.8873 507.237 23.5817C506.689 24.3266 505.95 24.909 505.098 25.267C504.111 25.685 503.048 25.8921 501.976 25.8753C500.507 25.8872 499.072 25.4238 497.888 24.554Z" fill="#D7D7D7"/>
<path d="M14.3804 14.6676L24.1882 9.00832C25.297 8.36827 26.1062 7.31393 26.4377 6.07728C26.7692 4.84063 26.5958 3.52295 25.9558 2.41411C25.3157 1.30527 24.2614 0.49611 23.0248 0.164622C21.7881 -0.166865 20.4704 0.00648355 19.3616 0.64653L2.40869 10.4344L14.3804 14.6676Z" fill="#EA4335"/>
<path d="M21.7694 29.222C22.8319 29.2225 23.8648 28.8724 24.708 28.2261C25.5512 27.5798 26.1576 26.6733 26.4331 25.6472C26.7087 24.6212 26.638 23.5328 26.232 22.551C25.826 21.5692 25.1074 20.7488 24.1877 20.217L7.23479 10.4342C6.68608 10.1176 6.08038 9.91217 5.45228 9.82966C4.82418 9.74715 4.18599 9.78918 3.57412 9.95331C2.96226 10.1174 2.38871 10.4005 1.88623 10.7863C1.38376 11.1721 0.96219 11.6531 0.645599 12.2018C0.329007 12.7505 0.1236 13.3562 0.041092 13.9843C-0.0414162 14.6124 0.000590279 15.2506 0.164726 15.8624C0.328862 16.4743 0.611917 17.0479 0.997709 17.5503C1.3835 18.0528 1.86448 18.4744 2.41319 18.791L19.3661 28.5738C20.0966 28.9967 20.9254 29.2202 21.7694 29.222Z" fill="#4285F4"/>
<path d="M38.6073 29.2213C39.4532 29.2212 40.284 28.9976 41.0157 28.5731L57.9686 18.7903L46.1564 14.4673L36.1841 20.2163C35.2639 20.7484 34.5451 21.5692 34.1393 22.5515C33.7334 23.5338 33.6631 24.6226 33.9392 25.649C34.2154 26.6753 34.8227 27.5818 35.6668 28.2277C36.5108 28.8737 37.5445 29.2229 38.6073 29.2213Z" fill="#FBBC04"/>
<path d="M55.5615 19.4394C56.6239 19.4399 57.6568 19.0898 58.5 18.4435C59.3433 17.7971 59.9497 16.8906 60.2252 15.8646C60.5008 14.8385 60.4301 13.7502 60.0241 12.7684C59.6181 11.7866 58.8995 10.9662 57.9798 10.4344L41.0268 0.646531C39.918 0.00648363 38.6003 -0.166865 37.3637 0.164623C36.127 0.496111 35.0727 1.30527 34.4327 2.41412C33.7926 3.52296 33.6193 4.84064 33.9508 6.07729C34.2822 7.31394 35.0914 8.36828 36.2002 9.00833L53.1532 18.7912C53.8848 19.2156 54.7156 19.4392 55.5615 19.4394Z" fill="#34A853"/>
<path d="M83.6399 58.2577C82.4818 58.2577 81.481 57.9431 80.6375 57.3141C79.794 56.685 79.2007 55.8129 78.8575 54.6977L80.7233 53.9257C81.2094 55.5556 82.1816 56.3705 83.6399 56.3705C84.4405 56.3705 85.0839 56.0917 85.5699 55.5341C86.0703 54.9622 86.3205 54.2259 86.3205 53.3252V42.5596H88.2935V53.1537C88.2935 54.7406 87.8718 55.9916 87.0282 56.9066C86.199 57.8073 85.0696 58.2577 83.6399 58.2577ZM100.612 53.8185C100.612 55.1624 100.119 56.2418 99.1323 57.0567C98.1316 57.8574 96.9163 58.2577 95.4866 58.2577C94.2142 58.2577 93.0919 57.886 92.1197 57.1425C91.1475 56.3991 90.4755 55.384 90.1038 54.0973L91.991 53.3252C92.1197 53.7827 92.2984 54.1973 92.5272 54.5691C92.7559 54.9408 93.0204 55.2625 93.3206 55.5341C93.6352 55.7915 93.9783 55.9988 94.35 56.156C94.7217 56.299 95.1149 56.3705 95.5295 56.3705C96.4302 56.3705 97.1665 56.1417 97.7384 55.6842C98.3103 55.2124 98.5962 54.5905 98.5962 53.8185C98.5962 53.1751 98.3603 52.6247 97.8885 52.1672C97.4453 51.724 96.6161 51.2951 95.4008 50.8804C94.1713 50.4372 93.4064 50.137 93.1062 49.9797C91.4763 49.1505 90.6614 47.9281 90.6614 46.3126C90.6614 45.1831 91.1118 44.2181 92.0125 43.4174C92.9275 42.6168 94.0498 42.2165 95.3794 42.2165C96.5517 42.2165 97.5668 42.5167 98.4246 43.1172C99.2825 43.7034 99.8543 44.4397 100.14 45.3261L98.296 46.0981C98.1244 45.5262 97.7813 45.0544 97.2666 44.6827C96.7662 44.2967 96.1514 44.1037 95.4223 44.1037C94.6503 44.1037 93.9997 44.3181 93.4708 44.7471C92.9418 45.1474 92.6773 45.6692 92.6773 46.3126C92.6773 46.8416 92.8846 47.2991 93.2992 47.6851C93.7567 48.0711 94.7503 48.5286 96.2801 49.0576C97.8385 49.5866 98.9465 50.2371 99.6041 51.0091C100.276 51.7669 100.612 52.7033 100.612 53.8185ZM112.466 53.8185C112.466 55.1624 111.972 56.2418 110.986 57.0567C109.985 57.8574 108.77 58.2577 107.34 58.2577C106.068 58.2577 104.946 57.886 103.973 57.1425C103.001 56.3991 102.329 55.384 101.957 54.0973L103.845 53.3252C103.973 53.7827 104.152 54.1973 104.381 54.5691C104.61 54.9408 104.874 55.2625 105.174 55.5341C105.489 55.7915 105.832 55.9988 106.204 56.156C106.575 56.299 106.969 56.3705 107.383 56.3705C108.284 56.3705 109.02 56.1417 109.592 55.6842C110.164 55.2124 110.45 54.5905 110.45 53.8185C110.45 53.1751 110.214 52.6247 109.742 52.1672C109.299 51.724 108.47 51.2951 107.254 50.8804C106.025 50.4372 105.26 50.137 104.96 49.9797C103.33 49.1505 102.515 47.9281 102.515 46.3126C102.515 45.1831 102.965 44.2181 103.866 43.4174C104.781 42.6168 105.903 42.2165 107.233 42.2165C108.405 42.2165 109.42 42.5167 110.278 43.1172C111.136 43.7034 111.708 44.4397 111.994 45.3261L110.15 46.0981C109.978 45.5262 109.635 45.0544 109.12 44.6827C108.62 44.2967 108.005 44.1037 107.276 44.1037C106.504 44.1037 105.853 44.3181 105.324 44.7471C104.795 45.1474 104.531 45.6692 104.531 46.3126C104.531 46.8416 104.738 47.2991 105.153 47.6851C105.61 48.0711 106.604 48.5286 108.134 49.0576C109.692 49.5866 110.8 50.2371 111.458 51.0091C112.13 51.7669 112.466 52.7033 112.466 53.8185ZM124.479 44.983L121.97 51.9098H127.074L124.565 44.983H124.479ZM119.804 57.9146H117.617L123.407 42.5596H125.637L131.428 57.9146H129.24L127.76 53.7541H121.305L119.804 57.9146ZM137.375 58.2577C135.817 58.2577 134.523 57.7287 133.493 56.6707C132.478 55.5841 131.971 54.2474 131.971 52.6604C131.971 51.0449 132.478 49.7081 133.493 48.6501C134.523 47.5921 135.817 47.0632 137.375 47.0632C138.447 47.0632 139.384 47.3348 140.184 47.8781C140.985 48.4071 141.585 49.1434 141.986 50.087L140.184 50.8376C139.627 49.5222 138.647 48.8646 137.246 48.8646C136.346 48.8646 135.566 49.2291 134.909 49.9583C134.265 50.6874 133.944 51.5881 133.944 52.6604C133.944 53.7327 134.265 54.6334 134.909 55.3625C135.566 56.0917 136.346 56.4563 137.246 56.4563C138.69 56.4563 139.705 55.7986 140.292 54.4833L142.05 55.2339C141.664 56.1775 141.056 56.9209 140.227 57.4642C139.412 57.9932 138.462 58.2577 137.375 58.2577ZM145.108 54.6977C145.108 55.2124 145.322 55.6413 145.751 55.9845C146.194 56.3276 146.709 56.4992 147.295 56.4992C148.124 56.4992 148.861 56.1918 149.504 55.577C150.162 54.9622 150.49 54.2402 150.49 53.411C149.876 52.9249 149.018 52.6819 147.917 52.6819C147.116 52.6819 146.444 52.8749 145.901 53.2609C145.372 53.6469 145.108 54.1259 145.108 54.6977ZM147.66 47.0632C149.118 47.0632 150.269 47.4563 151.112 48.2427C151.956 49.0147 152.378 50.0798 152.378 51.438V57.9146H150.49V56.4563H150.405C149.59 57.6572 148.503 58.2577 147.145 58.2577C145.987 58.2577 145.015 57.9146 144.228 57.2283C143.456 56.542 143.07 55.6842 143.07 54.6548C143.07 53.5683 143.478 52.7033 144.293 52.0599C145.122 51.4166 146.223 51.0949 147.595 51.0949C148.768 51.0949 149.733 51.3094 150.49 51.7383V51.2879C150.49 50.6017 150.219 50.0226 149.675 49.5508C149.132 49.0647 148.496 48.8217 147.767 48.8217C146.666 48.8217 145.794 49.2863 145.15 50.2156L143.413 49.1219C144.371 47.7494 145.787 47.0632 147.66 47.0632ZM159.216 56.4563C160.188 56.4563 160.982 56.106 161.597 55.4054C162.24 54.7049 162.562 53.7899 162.562 52.6604C162.562 51.5596 162.24 50.6517 161.597 49.9368C160.968 49.222 160.174 48.8646 159.216 48.8646C158.273 48.8646 157.479 49.222 156.836 49.9368C156.192 50.6517 155.871 51.5596 155.871 52.6604C155.871 53.7756 156.192 54.6834 156.836 55.384C157.479 56.0988 158.273 56.4563 159.216 56.4563ZM158.894 58.2577C157.522 58.2577 156.342 57.7144 155.356 56.6278C154.384 55.527 153.898 54.2045 153.898 52.6604C153.898 51.1163 154.384 49.7939 155.356 48.693C156.342 47.6064 157.522 47.0632 158.894 47.0632C159.667 47.0632 160.367 47.2276 160.996 47.5564C161.639 47.8852 162.133 48.3213 162.476 48.8646H162.562L162.476 47.4063V42.5596H164.449V57.9146H162.562V56.4563H162.476C162.133 56.9995 161.639 57.4356 160.996 57.7644C160.367 58.0933 159.667 58.2577 158.894 58.2577ZM171.468 58.2577C169.924 58.2577 168.651 57.7287 167.65 56.6707C166.65 55.6127 166.149 54.276 166.149 52.6604C166.149 51.0592 166.635 49.7295 167.608 48.6716C168.58 47.5993 169.824 47.0632 171.339 47.0632C172.897 47.0632 174.134 47.5707 175.049 48.5858C175.978 49.5866 176.443 50.9948 176.443 52.8105L176.422 53.025H168.165C168.194 54.0544 168.537 54.8836 169.195 55.5127C169.852 56.1417 170.639 56.4563 171.554 56.4563C172.812 56.4563 173.798 55.8272 174.513 54.5691L176.272 55.4269C175.8 56.3133 175.142 57.0067 174.299 57.5071C173.469 58.0075 172.526 58.2577 171.468 58.2577ZM168.315 51.3951H174.341C174.284 50.666 173.984 50.0655 173.441 49.5937C172.912 49.1076 172.197 48.8646 171.296 48.8646C170.553 48.8646 169.909 49.0933 169.366 49.5508C168.837 50.0083 168.487 50.6231 168.315 51.3951ZM180.22 57.9146H178.247V47.4063H180.135V48.8646H180.22C180.521 48.3499 180.978 47.921 181.593 47.5778C182.222 47.2347 182.844 47.0632 183.459 47.0632C184.231 47.0632 184.91 47.2419 185.496 47.5993C186.082 47.9567 186.511 48.45 186.783 49.079C187.655 47.7351 188.863 47.0632 190.407 47.0632C191.622 47.0632 192.559 47.4349 193.216 48.1783C193.874 48.9218 194.203 49.9797 194.203 51.3522V57.9146H192.23V51.6525C192.23 50.666 192.051 49.9583 191.694 49.5294C191.336 49.0862 190.736 48.8646 189.892 48.8646C189.135 48.8646 188.498 49.1863 187.984 49.8296C187.469 50.473 187.212 51.2307 187.212 52.1028V57.9146H185.239V51.6525C185.239 50.666 185.06 49.9583 184.702 49.5294C184.345 49.0862 183.745 48.8646 182.901 48.8646C182.143 48.8646 181.507 49.1863 180.992 49.8296C180.478 50.473 180.22 51.2307 180.22 52.1028V57.9146ZM205.693 47.4063L199.11 62.5468H197.072L199.517 57.2497L195.185 47.4063H197.33L200.461 54.9551H200.504L203.549 47.4063H205.693ZM211.093 52.6604C211.093 51.0449 211.6 49.7081 212.615 48.6501C213.645 47.5921 214.938 47.0632 216.497 47.0632C218.055 47.0632 219.342 47.5921 220.357 48.6501C221.386 49.7081 221.901 51.0449 221.901 52.6604C221.901 54.2903 221.386 55.627 220.357 56.6707C219.342 57.7287 218.055 58.2577 216.497 58.2577C214.938 58.2577 213.645 57.7287 212.615 56.6707C211.6 55.6127 211.093 54.276 211.093 52.6604ZM213.066 52.6604C213.066 53.7899 213.394 54.7049 214.052 55.4054C214.71 56.106 215.525 56.4563 216.497 56.4563C217.469 56.4563 218.284 56.106 218.942 55.4054C219.599 54.7049 219.928 53.7899 219.928 52.6604C219.928 51.5453 219.599 50.6374 218.942 49.9368C218.27 49.222 217.455 48.8646 216.497 48.8646C215.539 48.8646 214.724 49.222 214.052 49.9368C213.394 50.6374 213.066 51.5453 213.066 52.6604ZM228.226 42.3881C228.941 42.3881 229.527 42.5096 229.985 42.7526L229.449 44.4897C229.105 44.3181 228.719 44.2324 228.291 44.2324C227.804 44.2324 227.404 44.4039 227.09 44.7471C226.789 45.0759 226.639 45.5191 226.639 46.0767V47.4063H229.384V49.2077H226.639V57.9146H224.666V49.2077H222.693V47.4063H224.666V45.8837C224.666 44.84 224.995 43.9965 225.653 43.3531C226.325 42.7097 227.183 42.3881 228.226 42.3881ZM240.704 44.4468V57.9146H238.731V44.4468H234.442V42.5596H244.993V44.4468H240.704ZM249.71 58.2577C248.166 58.2577 246.894 57.7287 245.893 56.6707C244.892 55.6127 244.392 54.276 244.392 52.6604C244.392 51.0592 244.878 49.7295 245.85 48.6716C246.822 47.5993 248.066 47.0632 249.582 47.0632C251.14 47.0632 252.377 47.5707 253.292 48.5858C254.221 49.5866 254.686 50.9948 254.686 52.8105L254.664 53.025H246.408C246.436 54.0544 246.779 54.8836 247.437 55.5127C248.095 56.1417 248.881 56.4563 249.796 56.4563C251.054 56.4563 252.041 55.8272 252.756 54.5691L254.514 55.4269C254.042 56.3133 253.385 57.0067 252.541 57.5071C251.712 58.0075 250.768 58.2577 249.71 58.2577ZM246.558 51.3951H252.584C252.527 50.666 252.227 50.0655 251.683 49.5937C251.154 49.1076 250.439 48.8646 249.539 48.8646C248.795 48.8646 248.152 49.0933 247.609 49.5508C247.08 50.0083 246.729 50.6231 246.558 51.3951ZM261.399 58.2577C259.84 58.2577 258.546 57.7287 257.517 56.6707C256.502 55.5841 255.994 54.2474 255.994 52.6604C255.994 51.0449 256.502 49.7081 257.517 48.6501C258.546 47.5921 259.84 47.0632 261.399 47.0632C262.471 47.0632 263.407 47.3348 264.208 47.8781C265.009 48.4071 265.609 49.1434 266.009 50.087L264.208 50.8376C263.65 49.5222 262.671 48.8646 261.27 48.8646C260.369 48.8646 259.59 49.2291 258.932 49.9583C258.289 50.6874 257.967 51.5881 257.967 52.6604C257.967 53.7327 258.289 54.6334 258.932 55.3625C259.59 56.0917 260.369 56.4563 261.27 56.4563C262.714 56.4563 263.729 55.7986 264.315 54.4833L266.074 55.2339C265.688 56.1775 265.08 56.9209 264.251 57.4642C263.436 57.9932 262.485 58.2577 261.399 58.2577ZM267.799 42.5596H269.772V47.4063L269.686 48.8646H269.772C270.072 48.3499 270.53 47.921 271.145 47.5778C271.774 47.2347 272.424 47.0632 273.096 47.0632C274.383 47.0632 275.369 47.4349 276.056 48.1783C276.756 48.9075 277.106 49.9511 277.106 51.3094V57.9146H275.133V51.6954C275.133 49.8082 274.297 48.8646 272.624 48.8646C271.824 48.8646 271.145 49.2006 270.587 49.8725C270.044 50.5302 269.772 51.3022 269.772 52.1886V57.9146H267.799V42.5596ZM279.423 47.4063H281.31V48.8646H281.395C281.696 48.3499 282.153 47.921 282.768 47.5778C283.397 47.2347 284.048 47.0632 284.72 47.0632C286.006 47.0632 286.993 47.4349 287.679 48.1783C288.38 48.9075 288.73 49.9511 288.73 51.3094V57.9146H286.757V51.438C286.714 49.7224 285.849 48.8646 284.162 48.8646C283.376 48.8646 282.718 49.1863 282.189 49.8296C281.66 50.4587 281.395 51.2164 281.395 52.1028V57.9146H279.423V47.4063ZM293.598 43.782C293.598 44.168 293.462 44.4969 293.19 44.7685C292.919 45.0401 292.59 45.176 292.204 45.176C291.818 45.176 291.489 45.0401 291.217 44.7685C290.946 44.4969 290.81 44.168 290.81 43.782C290.81 43.396 290.946 43.0672 291.217 42.7955C291.489 42.5239 291.818 42.3881 292.204 42.3881C292.59 42.3881 292.919 42.5239 293.19 42.7955C293.462 43.0672 293.598 43.396 293.598 43.782ZM293.19 47.4063V57.9146H291.217V47.4063H293.19ZM300.457 58.2577C298.898 58.2577 297.604 57.7287 296.575 56.6707C295.56 55.5841 295.052 54.2474 295.052 52.6604C295.052 51.0449 295.56 49.7081 296.575 48.6501C297.604 47.5921 298.898 47.0632 300.457 47.0632C301.529 47.0632 302.465 47.3348 303.266 47.8781C304.067 48.4071 304.667 49.1434 305.068 50.087L303.266 50.8376C302.709 49.5222 301.729 48.8646 300.328 48.8646C299.427 48.8646 298.648 49.2291 297.991 49.9583C297.347 50.6874 297.025 51.5881 297.025 52.6604C297.025 53.7327 297.347 54.6334 297.991 55.3625C298.648 56.0917 299.427 56.4563 300.328 56.4563C301.772 56.4563 302.787 55.7986 303.373 54.4833L305.132 55.2339C304.746 56.1775 304.138 56.9209 303.309 57.4642C302.494 57.9932 301.543 58.2577 300.457 58.2577ZM308.189 54.6977C308.189 55.2124 308.404 55.6413 308.833 55.9845C309.276 56.3276 309.791 56.4992 310.377 56.4992C311.206 56.4992 311.942 56.1918 312.586 55.577C313.243 54.9622 313.572 54.2402 313.572 53.411C312.957 52.9249 312.1 52.6819 310.999 52.6819C310.198 52.6819 309.526 52.8749 308.983 53.2609C308.454 53.6469 308.189 54.1259 308.189 54.6977ZM310.741 47.0632C312.2 47.0632 313.351 47.4563 314.194 48.2427C315.038 49.0147 315.459 50.0798 315.459 51.438V57.9146H313.572V56.4563H313.486C312.672 57.6572 311.585 58.2577 310.227 58.2577C309.069 58.2577 308.096 57.9146 307.31 57.2283C306.538 56.542 306.152 55.6842 306.152 54.6548C306.152 53.5683 306.56 52.7033 307.374 52.0599C308.204 51.4166 309.305 51.0949 310.677 51.0949C311.849 51.0949 312.814 51.3094 313.572 51.7383V51.2879C313.572 50.6017 313.301 50.0226 312.757 49.5508C312.214 49.0647 311.578 48.8217 310.849 48.8217C309.748 48.8217 308.876 49.2863 308.232 50.2156L306.495 49.1219C307.453 47.7494 308.869 47.0632 310.741 47.0632ZM319.658 42.5596V57.9146H317.685V42.5596H319.658ZM336.081 42.5596V44.4468H329.09V49.3149H335.395V51.1592H329.09V56.0274H336.081V57.9146H327.117V42.5596H336.081ZM342.696 56.4563C343.669 56.4563 344.462 56.106 345.077 55.4054C345.72 54.7049 346.042 53.7899 346.042 52.6604C346.042 51.5596 345.72 50.6517 345.077 49.9368C344.448 49.222 343.654 48.8646 342.696 48.8646C341.753 48.8646 340.959 49.222 340.316 49.9368C339.673 50.6517 339.351 51.5596 339.351 52.6604C339.351 53.7756 339.673 54.6834 340.316 55.384C340.959 56.0988 341.753 56.4563 342.696 56.4563ZM342.375 58.2577C341.002 58.2577 339.823 57.7144 338.836 56.6278C337.864 55.527 337.378 54.2045 337.378 52.6604C337.378 51.1163 337.864 49.7939 338.836 48.693C339.823 47.6064 341.002 47.0632 342.375 47.0632C343.147 47.0632 343.847 47.2276 344.476 47.5564C345.12 47.8852 345.613 48.3213 345.956 48.8646H346.042L345.956 47.4063V42.5596H347.929V57.9146H346.042V56.4563H345.956C345.613 56.9995 345.12 57.4356 344.476 57.7644C343.847 58.0933 343.147 58.2577 342.375 58.2577ZM359.556 57.9146H357.669V56.4563H357.583C357.283 56.971 356.818 57.3999 356.189 57.743C355.574 58.0861 354.931 58.2577 354.259 58.2577C352.972 58.2577 351.979 57.8931 351.278 57.164C350.592 56.4205 350.249 55.3697 350.249 54.0115V47.4063H352.222V53.8828C352.265 55.5984 353.13 56.4563 354.817 56.4563C355.603 56.4563 356.261 56.1417 356.79 55.5127C357.319 54.8693 357.583 54.1044 357.583 53.218V47.4063H359.556V57.9146ZM366.657 58.2577C365.099 58.2577 363.805 57.7287 362.775 56.6707C361.76 55.5841 361.253 54.2474 361.253 52.6604C361.253 51.0449 361.76 49.7081 362.775 48.6501C363.805 47.5921 365.099 47.0632 366.657 47.0632C367.729 47.0632 368.666 47.3348 369.466 47.8781C370.267 48.4071 370.867 49.1434 371.268 50.087L369.466 50.8376C368.909 49.5222 367.929 48.8646 366.528 48.8646C365.628 48.8646 364.848 49.2291 364.191 49.9583C363.547 50.6874 363.226 51.5881 363.226 52.6604C363.226 53.7327 363.547 54.6334 364.191 55.3625C364.848 56.0917 365.628 56.4563 366.528 56.4563C367.972 56.4563 368.987 55.7986 369.573 54.4833L371.332 55.2339C370.946 56.1775 370.338 56.9209 369.509 57.4642C368.694 57.9932 367.743 58.2577 366.657 58.2577ZM374.39 54.6977C374.39 55.2124 374.604 55.6413 375.033 55.9845C375.476 56.3276 375.991 56.4992 376.577 56.4992C377.406 56.4992 378.143 56.1918 378.786 55.577C379.444 54.9622 379.773 54.2402 379.773 53.411C379.158 52.9249 378.3 52.6819 377.199 52.6819C376.398 52.6819 375.726 52.8749 375.183 53.2609C374.654 53.6469 374.39 54.1259 374.39 54.6977ZM376.942 47.0632C378.4 47.0632 379.551 47.4563 380.394 48.2427C381.238 49.0147 381.66 50.0798 381.66 51.438V57.9146H379.773V56.4563H379.687C378.872 57.6572 377.785 58.2577 376.427 58.2577C375.269 58.2577 374.297 57.9146 373.51 57.2283C372.738 56.542 372.352 55.6842 372.352 54.6548C372.352 53.5683 372.76 52.7033 373.575 52.0599C374.404 51.4166 375.505 51.0949 376.877 51.0949C378.05 51.0949 379.015 51.3094 379.773 51.7383V51.2879C379.773 50.6017 379.501 50.0226 378.958 49.5508C378.414 49.0647 377.778 48.8217 377.049 48.8217C375.948 48.8217 375.076 49.2863 374.433 50.2156L372.696 49.1219C373.653 47.7494 375.069 47.0632 376.942 47.0632ZM387.836 58.0861C386.978 58.0861 386.264 57.8216 385.692 57.2926C385.134 56.7636 384.848 56.0274 384.834 55.0838V49.2077H382.99V47.4063H384.834V44.1895H386.807V47.4063H389.38V49.2077H386.807V54.4404C386.807 55.1409 386.943 55.6199 387.214 55.8772C387.486 56.1203 387.793 56.2418 388.137 56.2418C388.294 56.2418 388.444 56.2275 388.587 56.1989C388.744 56.156 388.887 56.106 389.016 56.0488L389.638 57.8073C389.123 57.9932 388.523 58.0861 387.836 58.0861ZM393.914 43.782C393.914 44.168 393.778 44.4969 393.507 44.7685C393.235 45.0401 392.906 45.176 392.52 45.176C392.134 45.176 391.805 45.0401 391.534 44.7685C391.262 44.4969 391.126 44.168 391.126 43.782C391.126 43.396 391.262 43.0672 391.534 42.7955C391.805 42.5239 392.134 42.3881 392.52 42.3881C392.906 42.3881 393.235 42.5239 393.507 42.7955C393.778 43.0672 393.914 43.396 393.914 43.782ZM393.507 47.4063V57.9146H391.534V47.4063H393.507ZM395.369 52.6604C395.369 51.0449 395.876 49.7081 396.892 48.6501C397.921 47.5921 399.215 47.0632 400.773 47.0632C402.332 47.0632 403.618 47.5921 404.633 48.6501C405.663 49.7081 406.177 51.0449 406.177 52.6604C406.177 54.2903 405.663 55.627 404.633 56.6707C403.618 57.7287 402.332 58.2577 400.773 58.2577C399.215 58.2577 397.921 57.7287 396.892 56.6707C395.876 55.6127 395.369 54.276 395.369 52.6604ZM397.342 52.6604C397.342 53.7899 397.671 54.7049 398.328 55.4054C398.986 56.106 399.801 56.4563 400.773 56.4563C401.745 56.4563 402.56 56.106 403.218 55.4054C403.876 54.7049 404.204 53.7899 404.204 52.6604C404.204 51.5453 403.876 50.6374 403.218 49.9368C402.546 49.222 401.731 48.8646 400.773 48.8646C399.815 48.8646 399 49.222 398.328 49.9368C397.671 50.6374 397.342 51.5453 397.342 52.6604ZM407.76 47.4063H409.647V48.8646H409.733C410.033 48.3499 410.491 47.921 411.105 47.5778C411.735 47.2347 412.385 47.0632 413.057 47.0632C414.344 47.0632 415.33 47.4349 416.016 48.1783C416.717 48.9075 417.067 49.9511 417.067 51.3094V57.9146H415.094V51.438C415.051 49.7224 414.186 48.8646 412.499 48.8646C411.713 48.8646 411.055 49.1863 410.526 49.8296C409.997 50.4587 409.733 51.2164 409.733 52.1028V57.9146H407.76V47.4063Z" fill="#D7D7D7"/>
</svg>
